<?xml version="1.0" encoding="utf-8"?>
<!-- Generator: Adobe Illustrator 23.1.1, SVG Export Plug-In . SVG Version: 6.00 Build 0)  -->
<svg version="1.1" xmlns="http://www.w3.org/2000/svg" xmlns:xlink="http://www.w3.org/1999/xlink" x="0px" y="0px"
	 viewBox="0 0 907.1 907.1" style="enable-background:new 0 0 907.1 907.1;" xml:space="preserve">
<style type="text/css">
	.st0{fill:none;stroke:#231815;stroke-miterlimit:10;}
	.st1{fill:#231815;stroke:#000000;stroke-miterlimit:10;}
</style>
<g id="レイヤー_2">
	<rect y="0" class="st0" width="907.1" height="907.1"/>
</g>
<g id="レイヤー_1">
	<g>
		<path class="st1" d="M850.4,198.4V56.7H708.7v56.7H524.4V56.7H382.7v56.7H198.4V56.7H56.7v141.7h56.7v184.3H56.7v141.7h56.7v184.3
			H56.7v141.7h141.7v-56.7h184.3v56.7h141.7v-56.7h184.3v56.7h141.7V708.7h-56.7V524.4h56.7V382.7h-56.7V198.4H850.4z M765.4,382.7
			h-56.7v141.7h56.7v184.3h-56.7v56.7H524.4v-56.7H382.7v56.7H198.4v-56.7h-56.7V524.4h56.7V382.7h-56.7V198.4h56.7v-56.7h184.3
			v56.7h141.7v-56.7h184.3v56.7h56.7V382.7z"/>
		<rect x="382.7" y="382.7" class="st1" width="141.7" height="141.7"/>
	</g>
</g>
</svg>
