<?xml version="1.0" encoding="utf-8"?>
<!-- Generator: Adobe Illustrator 23.1.1, SVG Export Plug-In . SVG Version: 6.00 Build 0)  -->
<svg version="1.1" xmlns="http://www.w3.org/2000/svg" xmlns:xlink="http://www.w3.org/1999/xlink" x="0px" y="0px"
	 viewBox="0 0 512 512" style="enable-background:new 0 0 512 512;" xml:space="preserve">
<style type="text/css">
	.st0{fill:none;}
	.st1{stroke:#000000;stroke-miterlimit:10;}
</style>
<g id="レイヤー_2">
	<rect y="0" class="st0" width="512" height="512"/>
</g>
<g id="レイヤー_1">
	<g id="_x32_">
		<g>
			<path class="st1" d="M232.4,359l-50.2-35.3l-1-0.1c-23.2-2.4-45.9,8-59.3,27c-12.7,18.1-17.3,37.7-21.8,56.8
				c-3,13-6.2,26.4-11.9,39.3c-4.7,10.7-7.9,14.5-7.9,14.5l-3.3,3.7l4.4,2.1c20.7,10,48.6,11.3,76.6,3.8c29.4-7.9,54-24.2,69.3-46
				c13.4-19,15.5-43.9,5.5-65L232.4,359z M214.3,415.6c-3.6,5.1-7.9,9.9-12.8,14.3c-0.8,0.5-1.6,1.1-2.4,1.7
				c-9.2,7.2-21.2,4.1-13.9-10.5c7.3-14.7-5.6-19.4-16-9.7c-13.1,12.1-19.2,2.4-16.8-4.2c2.4-6.7,11.1-15.8,3.8-21.7
				c-4.4-3.5-10,1.6-19,8.7c-5.2,4-17.1,2.7-12.2-15.1c2.6-6.6,5.8-13,10.1-19.2c9.4-13.3,25.2-21.1,41.5-20.5l43,30.3
				C225.6,384.7,223.6,402.3,214.3,415.6z"/>
			<path class="st1" d="M199.4,273c-5.4,6.9-7.7,15.6-6.5,24.2c1.3,8.6,6,16.3,13.1,21.4l23.1,16.3c7.1,5,16,6.9,24.5,5.2
				c8.5-1.7,16-6.9,20.6-14.2l21-33.4L223.6,242L199.4,273z"/>
			<path class="st1" d="M420,39.7l-0.2-0.1c-13.4-9.4-31.7-6.7-41.8,6.1L232.5,230.9l70.4,49.6L428.3,81.2
				C437,67.3,433.3,49.1,420,39.7z"/>
		</g>
	</g>
</g>
</svg>
